<svg width="54" height="54" viewBox="0 0 54 54" fill="none" xmlns="http://www.w3.org/2000/svg">
<path d="M53.0956 16.2228C53.0662 14.0138 52.6527 11.8267 51.8735 9.75946C51.1979 8.01574 50.1659 6.43212 48.8436 5.1098C47.5213 3.78748 45.9377 2.75552 44.194 2.07988C42.1533 1.31383 39.9974 0.89962 37.8181 0.854875C35.0123 0.729458 34.1227 0.694458 27.0002 0.694458C19.8777 0.694458 18.9648 0.694458 16.1794 0.854875C14.0011 0.899949 11.8462 1.31416 9.80645 2.07988C8.06246 2.75505 6.4786 3.78684 5.15622 5.10922C3.83384 6.4316 2.80205 8.01546 2.12687 9.75946C1.3593 11.7986 0.945981 13.9539 0.904788 16.1324C0.779372 18.9411 0.741455 19.8307 0.741455 26.9532C0.741455 34.0757 0.741455 34.9857 0.904788 37.774C0.948538 39.9557 1.35979 42.1082 2.12687 44.1528C2.80318 45.8963 3.83574 47.4795 5.15856 48.8013C6.48138 50.1231 8.06539 51.1545 9.80937 51.8295C11.8436 52.6263 13.9988 53.0701 16.1823 53.142C18.991 53.2674 19.8806 53.3053 27.0031 53.3053C34.1256 53.3053 35.0385 53.3053 37.824 53.142C40.0032 53.099 42.1592 52.6858 44.1998 51.9199C45.9431 51.2434 47.5263 50.2112 48.8485 48.889C50.1707 47.5668 51.2029 45.9836 51.8794 44.2403C52.6465 42.1986 53.0577 40.0461 53.1015 37.8615C53.2269 35.0557 53.2648 34.1661 53.2648 27.0407C53.2589 19.9182 53.259 19.014 53.0956 16.2228ZM26.9827 40.4224C19.5335 40.4224 13.499 34.3878 13.499 26.9386C13.499 19.4895 19.5335 13.4549 26.9827 13.4549C30.5588 13.4549 33.9885 14.8755 36.5172 17.4042C39.0458 19.9329 40.4665 23.3625 40.4665 26.9386C40.4665 30.5147 39.0458 33.9444 36.5172 36.4731C33.9885 39.0018 30.5588 40.4224 26.9827 40.4224ZM41.0031 16.1003C40.5901 16.1007 40.1811 16.0196 39.7994 15.8617C39.4178 15.7039 39.071 15.4723 38.779 15.1802C38.487 14.8882 38.2554 14.5414 38.0975 14.1598C37.9396 13.7782 37.8586 13.3691 37.859 12.9561C37.859 12.5434 37.9402 12.1348 38.0982 11.7535C38.2561 11.3722 38.4876 11.0257 38.7794 10.7339C39.0713 10.4421 39.4177 10.2106 39.799 10.0526C40.1803 9.89471 40.589 9.81342 41.0017 9.81342C41.4144 9.81342 41.823 9.89471 42.2043 10.0526C42.5856 10.2106 42.9321 10.4421 43.2239 10.7339C43.5157 11.0257 43.7472 11.3722 43.9051 11.7535C44.0631 12.1348 44.1444 12.5434 44.1444 12.9561C44.1444 14.6945 42.7385 16.1003 41.0031 16.1003Z" fill="#CCCCCC"/>
<path d="M26.9829 35.6974C31.8202 35.6974 35.7416 31.776 35.7416 26.9387C35.7416 22.1014 31.8202 18.1799 26.9829 18.1799C22.1455 18.1799 18.2241 22.1014 18.2241 26.9387C18.2241 31.776 22.1455 35.6974 26.9829 35.6974Z" fill="#CCCCCC"/>
</svg>
