<svg width="47" height="47" viewBox="0 0 47 47" fill="none" xmlns="http://www.w3.org/2000/svg">
<path d="M7.02508 46.3334C10.5367 46.3334 13.3834 43.4866 13.3834 39.975C13.3834 36.4634 10.5367 33.6167 7.02508 33.6167C3.51347 33.6167 0.666748 36.4634 0.666748 39.975C0.666748 43.4866 3.51347 46.3334 7.02508 46.3334Z" fill="#CCCCCC"/>
<path d="M0.666748 0.949829V9.204C21.1709 9.204 37.7959 25.829 37.7959 46.3332H46.0501C46.0501 21.279 25.7209 0.949829 0.666748 0.949829ZM0.666748 17.4582V25.7123C12.0417 25.7123 21.2876 34.9582 21.2876 46.3332H29.5417C29.5417 30.379 16.6209 17.4582 0.666748 17.4582Z" fill="#CCCCCC"/>
</svg>
